<?xml version="1.0" encoding="utf-8"?>
<svg version="1.1" xmlns="http://www.w3.org/2000/svg" style="display: none;" width="752" height="160" viewBox="0 0 752 160">
    <svg id="icon-search" viewBox="0 0 57.231 57.231"><g><path d="M23.945 9.373c-1.652 0-2.992 1.341-2.992 2.992 0 1.654 1.34 2.992 2.992 2.992 3.656 0 6.921 2.042 8.524 5.333.519 1.062 1.583 1.68 2.691 1.68.441 0 .888-.097 1.309-.303 1.486-.723 2.104-2.514 1.379-4.001-2.613-5.362-7.942-8.693-13.903-8.693z"/><path d="M56.135 50.469l-9.971-9.972c2.952-4.152 4.705-9.213 4.705-14.685 0-14.025-11.41-25.435-25.435-25.435S0 11.787 0 25.812c0 14.024 11.409 25.434 25.434 25.434 5.859 0 11.245-2.01 15.549-5.351l9.862 9.862c.73.73 1.689 1.096 2.645 1.096.958 0 1.915-.365 2.645-1.096 1.461-1.459 1.461-3.827 0-5.288zM5.986 25.813c0-10.725 8.726-19.45 19.45-19.45s19.45 8.725 19.45 19.45c0 4.462-1.525 8.566-4.063 11.852-.839 1.085-1.781 2.086-2.827 2.973-3.392 2.878-7.773 4.625-12.56 4.625-10.725-.001-19.45-8.726-19.45-19.45z"/></g></svg>
    <svg id="icon-arrow" viewBox="0 0 451.846 451.847"><path d="M345.441 248.292L151.154 442.573c-12.359 12.365-32.397 12.365-44.75 0-12.354-12.354-12.354-32.391 0-44.744L278.318 225.92 106.409 54.017c-12.354-12.359-12.354-32.394 0-44.748 12.354-12.359 32.391-12.359 44.75 0l194.287 194.284c6.177 6.18 9.262 14.271 9.262 22.366 0 8.099-3.091 16.196-9.267 22.373z"/></svg>
    <svg id="icon-logo" viewBox="0 0 368 368"><path d="M88 128.001H56c-13.232 0-24 10.768-24 24v80c0 4.416 3.576 8 8 8s8-3.584 8-8v-24h48v24c0 4.416 3.576 8 8 8s8-3.584 8-8v-80c0-13.232-10.768-24-24-24zm8 64H48v-40c0-4.408 3.584-8 8-8h32c4.416 0 8 3.592 8 8v40zM192 128.001h-32c-4.424 0-8 3.584-8 8v96c0 4.416 3.576 8 8 8s8-3.584 8-8v-24h24c22.056 0 40-17.944 40-40s-17.944-40-40-40zm0 64h-24v-48h24c13.232 0 24 10.768 24 24s-10.768 24-24 24zM328 224.001h-24v-80h24c4.424 0 8-3.584 8-8s-3.576-8-8-8h-64c-4.424 0-8 3.584-8 8s3.576 8 8 8h24v80h-24c-4.424 0-8 3.584-8 8s3.576 8 8 8h64c4.424 0 8-3.584 8-8s-3.576-8-8-8zM344 48.001H219.312l-29.656-29.656c-3.128-3.128-8.184-3.128-11.312 0l-29.656 29.656H24c-13.232 0-24 10.768-24 24v24c0 4.416 3.576 8 8 8s8-3.584 8-8v-24c0-4.408 3.584-8 8-8h128c2.128 0 4.16-.84 5.656-2.344L184 35.313l26.344 26.344c1.496 1.504 3.528 2.344 5.656 2.344h128c4.416 0 8 3.592 8 8v24c0 4.416 3.576 8 8 8s8-3.584 8-8v-24c0-13.232-10.768-24-24-24zM360 264.001c-4.424 0-8 3.584-8 8v24c0 4.408-3.584 8-8 8H216c-2.128 0-4.16.84-5.656 2.344L184 332.689l-26.344-26.344c-1.496-1.504-3.528-2.344-5.656-2.344H24c-4.416 0-8-3.592-8-8v-24c0-4.416-3.576-8-8-8s-8 3.584-8 8v24c0 13.232 10.768 24 24 24h124.688l29.656 29.656c1.56 1.56 3.608 2.344 5.656 2.344 2.048 0 4.096-.784 5.656-2.344l29.656-29.656H344c13.232 0 24-10.768 24-24v-24c0-4.416-3.576-8-8-8z"/></svg>
</svg>