<?xml version="1.0" encoding="utf-8"?>
<svg version="1.1" xmlns="http://www.w3.org/2000/svg" style="display: none;" width="752" height="160" viewBox="0 0 752 160">
    <svg id="icon-search" viewBox="0 0 57.231 57.231"><g><path d="M23.945 9.373c-1.652 0-2.992 1.341-2.992 2.992 0 1.654 1.34 2.992 2.992 2.992 3.656 0 6.921 2.042 8.524 5.333.519 1.062 1.583 1.68 2.691 1.68.441 0 .888-.097 1.309-.303 1.486-.723 2.104-2.514 1.379-4.001-2.613-5.362-7.942-8.693-13.903-8.693z"/><path d="M56.135 50.469l-9.971-9.972c2.952-4.152 4.705-9.213 4.705-14.685 0-14.025-11.41-25.435-25.435-25.435S0 11.787 0 25.812c0 14.024 11.409 25.434 25.434 25.434 5.859 0 11.245-2.01 15.549-5.351l9.862 9.862c.73.73 1.689 1.096 2.645 1.096.958 0 1.915-.365 2.645-1.096 1.461-1.459 1.461-3.827 0-5.288zM5.986 25.813c0-10.725 8.726-19.45 19.45-19.45s19.45 8.725 19.45 19.45c0 4.462-1.525 8.566-4.063 11.852-.839 1.085-1.781 2.086-2.827 2.973-3.392 2.878-7.773 4.625-12.56 4.625-10.725-.001-19.45-8.726-19.45-19.45z"/></g></svg>
</svg>